HIERARCHY
ROOT root
{
	OFFSET	0	13.1	24.9
	CHANNELS 6  Xposition Yposition Zposition Xrotation Yrotation Zrotation
	JOINT spine_1
	{
		OFFSET	0	9.99999	0
		CHANNELS 3  Xrotation Yrotation Zrotation
		JOINT spine_2
		{
			OFFSET	0	112	-10
			CHANNELS 3  Xrotation Yrotation Zrotation
			JOINT spine_3
			{
				OFFSET	0	206.5	19.3
				CHANNELS 3  Xrotation Yrotation Zrotation
				JOINT spine_4
				{
					OFFSET	0	110.4	14.6
					CHANNELS 3  Xrotation Yrotation Zrotation
					JOINT neck_1
					{
						OFFSET	0	71.8	-50.3
						CHANNELS 3  Xrotation Yrotation Zrotation
						JOINT neck_2
						{
							OFFSET	0	86.2	-25.8
							CHANNELS 3  Xrotation Yrotation Zrotation
							JOINT head_ee
							{
								OFFSET	0	179.8	-8.7
								CHANNELS 3  Xrotation Yrotation Zrotation
								End Site
								{
									OFFSET	1	0	0
								}
							}
						}
					}
					JOINT left_clavicle
					{
						OFFSET	-43.2	22.4	-70.8
						CHANNELS 3  Xrotation Yrotation Zrotation
						JOINT left_shoulder
						{
							OFFSET	-93.9	-5.79999	48.7
							CHANNELS 3  Xrotation Yrotation Zrotation
							JOINT left_elbow
							{
								OFFSET	-291.4	-30.8	15.2
								CHANNELS 3  Xrotation Yrotation Zrotation
								JOINT left_lowarm_twist
								{
									OFFSET	-110.7	-3.89999	13.6
									CHANNELS 3  Xrotation Yrotation Zrotation
									JOINT left_hand
									{
										OFFSET	-110.7	-3.89999	13.6
										CHANNELS 3  Xrotation Yrotation Zrotation
										JOINT left_ee
										{
											OFFSET	-80.8	-5.10001	12.1
											CHANNELS 3  Xrotation Yrotation Zrotation
											End Site
											{
												OFFSET	1	0	0
											}
										}
									}
								}
							}
						}
					}
					JOINT right_clavicle
					{
						OFFSET	43.2	22.4	-70.8
						CHANNELS 3  Xrotation Yrotation Zrotation
						JOINT right_shoulder
						{
							OFFSET	93.9	-5.79999	48.7
							CHANNELS 3  Xrotation Yrotation Zrotation
							JOINT right_elbow
							{
								OFFSET	291.4	-30.8	15.2
								CHANNELS 3  Xrotation Yrotation Zrotation
								JOINT right_lowarm_twist
								{
									OFFSET	110.7	-3.89999	13.6
									CHANNELS 3  Xrotation Yrotation Zrotation
									JOINT right_hand
									{
										OFFSET	110.7	-3.89999	13.6
										CHANNELS 3  Xrotation Yrotation Zrotation
										JOINT right_ee
										{
											OFFSET	80.8	-5.10001	12.1
											CHANNELS 3  Xrotation Yrotation Zrotation
											End Site
											{
												OFFSET	1	0	0
											}
										}
									}
								}
							}
						}
					}
				}
			}
		}
	}
	JOINT left_hip
	{
		OFFSET	-82.8	-127.5	0.300001
		CHANNELS 3  Xrotation Yrotation Zrotation
		JOINT left_knee
		{
			OFFSET	-28.2	-396.7	2.2
			CHANNELS 3  Xrotation Yrotation Zrotation
			JOINT left_ankle
			{
				OFFSET	-11.7	-411.3	35.4
				CHANNELS 3  Xrotation Yrotation Zrotation
				JOINT left_toes
				{
					OFFSET	0	-60	-88.6
					CHANNELS 3  Xrotation Yrotation Zrotation
					JOINT left_foot_ee
					{
						OFFSET	-22.5	-16.5	-42.2
						CHANNELS 3  Xrotation Yrotation Zrotation
						End Site
						{
							OFFSET	1	0	0
						}
					}
				}
			}
		}
	}
	JOINT right_hip
	{
		OFFSET	82.8	-127.5	0.300001
		CHANNELS 3  Xrotation Yrotation Zrotation
		JOINT right_knee
		{
			OFFSET	28.2	-396.7	2.2
			CHANNELS 3  Xrotation Yrotation Zrotation
			JOINT right_ankle
			{
				OFFSET	11.7	-411.3	35.4
				CHANNELS 3  Xrotation Yrotation Zrotation
				JOINT right_toes
				{
					OFFSET	0	-60	-88.6
					CHANNELS 3  Xrotation Yrotation Zrotation
					JOINT right_foot_ee
					{
						OFFSET	22.5	-16.5	-42.2
						CHANNELS 3  Xrotation Yrotation Zrotation
						End Site
						{
							OFFSET	1	0	0
						}
					}
				}
			}
		}
	}
}
MOTION
Frames: 6
Frame Time: 0.02
2131.67 729.708 -1505.12 -22.0602 68.5935 16.1309 3.25179 0.539272 2.83206 3.25618 0.358043 2.86061 3.27245 -0.0867537 2.88161 3.26105 0.369241 2.85919 -5.40993 11.2601 -5.15298 -5.17816 24.5702 -3.24579 -0.0 0.0 -0.0 -6.78729 21.4022 -7.31865 -0.281509 -25.8934 68.9595 1.23178 -31.3897 0.346131 -56.6994 -4.87536 4.98662 1.87734 7.41707 15.4873 -0.0 0.0 -0.0 12.1818 13.7117 -24.651 -12.7295 10.5207 -68.2836 0.261733 7.38764 -0.0168971 -8.80502 0.392131 -1.05407 0.798039 -0.449411 -5.52123 0.0 0.0 0.0 1.53552 23.0535 3.12627 3.31676 -0.150726 -0.486529 33.9003 3.49489 -4.29357 -40.1171 0.0 0.0 -0.0 0.0 -0.0 13.0378 15.905 0.614956 -16.4852 -0.320928 -2.50075 33.7527 6.322 4.37123 -29.765 0.0 0.0 0.0 0.0 0.0 
2130.42 730.846 -1500.1 -21.7677 68.4533 15.8219 3.13496 0.516421 2.76663 3.13915 0.339397 2.79385 3.15431 -0.100718 2.81258 3.14344 0.344563 2.79322 -6.82286 10.7983 -4.95268 -6.70562 23.6142 -2.8069 -0.0 0.0 -0.0 -6.46788 21.4753 -6.82394 1.28361 -26.8317 69.1344 1.36246 -34.0145 0.416752 -57.5129 -4.97516 5.01704 1.60005 9.2359 14.2865 -0.0 0.0 -0.0 12.4752 12.6719 -25.343 -13.2137 9.40297 -65.8455 0.189599 5.36573 -0.00888447 -7.07759 0.30247 -0.852154 0.185423 -2.74779 -2.38218 0.0 0.0 0.0 0.709032 24.2167 4.13444 4.27627 -0.199568 -0.625606 32.8083 2.1716 -4.18922 -40.1677 0.0 0.0 -0.0 0.0 -0.0 13.1128 21.0138 0.508817 -17.8257 -0.315182 -2.70634 33.1045 5.73471 4.29681 -29.7467 0.0 0.0 0.0 0.0 0.0 
2126.27 728.458 -1500.26 -22.4246 68.7816 16.742 3.05049 0.436688 2.69537 3.0545 0.264355 2.71767 3.06578 -0.167245 2.72536 3.05552 0.265112 2.71759 -7.22148 10.6141 -4.11537 -7.15925 22.6852 -1.91365 -0.0 0.0 -0.0 -6.34563 22.1988 -6.42723 2.36319 -26.7557 68.6736 1.60195 -38.4312 0.558379 -57.7015 -4.99837 5.02389 1.24002 9.38734 11.9568 -0.0 0.0 -0.0 12.5597 11.9858 -25.545 -14.0183 8.11872 -64.1213 0.154789 4.38485 -0.00592591 -5.49584 0.225756 -0.665008 -0.493274 -6.14802 0.656706 0.0 0.0 0.0 -0.200014 24.5406 4.22393 6.56558 -0.325483 -0.95405 32.8246 1.25747 -4.19565 -40.0789 0.0 0.0 -0.0 0.0 -0.0 13.4266 19.9216 0.00618041 -18.3951 -0.311286 -2.79362 33.8333 3.03097 4.33373 -29.6353 0.0 0.0 0.0 0.0 0.0 
2114.87 726.425 -1502.86 -22.7688 69.3953 16.8202 3.08191 0.400829 2.63505 3.08574 0.232402 2.6552 3.09527 -0.18761 2.65873 3.08548 0.23449 2.65501 -5.8797 10.9775 -3.05032 -5.76632 22.5278 -1.04313 -0.0 0.0 -0.0 -6.28301 22.6767 -6.19387 1.95447 -26.3794 68.0644 1.73483 -40.6717 0.643012 -57.8579 -5.01762 5.02951 0.878114 8.19682 9.12871 -0.0 0.0 -0.0 12.4587 11.1205 -25.3183 -14.6373 5.653 -64.2915 0.171314 4.85086 -0.00725643 -4.01502 0.158653 -0.487972 -1.74486 -12.7729 5.73775 0.0 0.0 0.0 -1.18149 24.3771 4.57856 6.26289 -0.308081 -0.91091 34.8689 0.317195 -4.40417 -40.1712 0.0 0.0 -0.0 0.0 -0.0 13.7535 19.1411 0.00494474 -20.7558 -0.285889 -3.15492 37.0705 1.24302 4.62519 -28.1021 0.0 0.0 0.0 0.0 0.0 
2107.85 723.2 -1506.1 -23.3829 69.67 17.2089 3.13131 0.390487 2.6274 3.13513 0.222567 2.64691 3.14412 -0.19377 2.64917 3.13439 0.226899 2.64654 -5.54086 11.0345 -1.77398 -5.44218 21.672 0.199241 -0.0 0.0 -0.0 -6.32505 23.2203 -6.09075 1.60736 -26.4945 66.8711 1.90797 -43.3803 0.75895 -57.7095 -4.99934 5.02418 0.582183 6.92267 6.6907 -0.0 0.0 -0.0 12.1652 11.0672 -24.6499 -14.3859 3.33818 -65.0907 0.182951 5.17861 -0.00827353 -2.66582 0.101523 -0.325231 -2.68663 -17.3109 9.35293 0.0 0.0 0.0 -1.5689 24.2835 4.49892 6.25961 -0.307894 -0.910442 36.0498 -0.363685 -4.52231 -40.1986 0.0 0.0 -0.0 0.0 -0.0 13.6865 18.5767 0.182201 -22.5674 -0.256315 -3.43132 38.7585 0.405021 4.77068 -27.7094 0.0 0.0 0.0 0.0 0.0 
2101.04 719.57 -1508.87 -23.1883 69.3935 16.9793 3.03036 0.361172 2.46552 3.03372 0.203601 2.48349 3.0415 -0.191419 2.48446 3.03294 0.203233 2.48352 -4.74976 11.5106 -0.79784 -4.62345 21.7511 1.13131 -0.0 0.0 -0.0 -6.26187 23.2933 -5.97939 1.53596 -26.3835 66.2464 2.09078 -45.9995 0.887555 -57.5508 -4.97983 5.01842 0.350245 5.66675 4.6655 -0.0 0.0 -0.0 12.1636 11.4994 -24.6439 -14.6961 1.53251 -64.3734 0.190445 5.38953 -0.00896376 -1.40902 0.0517719 -0.172482 -3.4908 -21.4115 11.9636 0.0 0.0 0.0 -1.90568 24.2684 4.37848 6.04429 -0.295656 -0.879699 37.1547 -0.810942 -4.6291 -40.1727 0.0 0.0 -0.0 0.0 -0.0 13.6338 18.8105 -0.0281399 -23.562 -0.236365 -3.58264 40.205 -0.262191 4.89165 -26.6243 0.0 0.0 0.0 0.0 0.0 
